<svg xmlns="http://www.w3.org/2000/svg" viewBox="0 0 64 64" role="img" fill="none" stroke="currentColor" stroke-width="2" stroke-linecap="round" stroke-linejoin="round">
  <title>Subestações de Média Tensão</title>
  <!-- Isolador esquerdo -->
  <rect x="17" y="3" width="6" height="13" rx="3"/>
  <line x1="14" y1="8"  x2="23" y2="8"/>
  <line x1="14" y1="12" x2="23" y2="12"/>
  <!-- Isolador central -->
  <rect x="29" y="3" width="6" height="13" rx="3"/>
  <line x1="26" y1="8"  x2="35" y2="8"/>
  <line x1="26" y1="12" x2="35" y2="12"/>
  <!-- Isolador direito -->
  <rect x="41" y="3" width="6" height="13" rx="3"/>
  <line x1="38" y1="8"  x2="47" y2="8"/>
  <line x1="38" y1="12" x2="47" y2="12"/>
  <!-- Corpo principal -->
  <rect x="8" y="16" width="48" height="32" rx="2"/>
  <!-- Fins de resfriamento -->
  <line x1="16" y1="20" x2="16" y2="44"/>
  <line x1="22" y1="20" x2="22" y2="44"/>
  <line x1="28" y1="20" x2="28" y2="44"/>
  <line x1="34" y1="20" x2="34" y2="44"/>
  <line x1="40" y1="20" x2="40" y2="44"/>
  <line x1="46" y1="20" x2="46" y2="44"/>
  <!-- Alças laterais -->
  <circle cx="5"  cy="26" r="3"/>
  <circle cx="5"  cy="40" r="3"/>
  <circle cx="59" cy="26" r="3"/>
  <circle cx="59" cy="40" r="3"/>
  <!-- Base -->
  <rect x="6" y="48" width="52" height="5" rx="1"/>
  <!-- Pés -->
  <rect x="10" y="53" width="10" height="7" rx="1"/>
  <rect x="44" y="53" width="10" height="7" rx="1"/>
</svg>
